<?xml version="1.0" encoding="UTF-8" standalone="no"?>
<!-- Created with Inkscape (http://www.inkscape.org/) -->

<svg
   width="297mm"
   height="210mm"
   viewBox="0 0 297 210"
   version="1.1"
   id="svg1"
   xmlns="http://www.w3.org/2000/svg"
   xmlns:svg="http://www.w3.org/2000/svg">
  <defs
     id="defs1" />
  <g
     id="layer1">
    <path
       style="fill:none;stroke:#000000;stroke-width:0.264583"
       d="m 85.560087,59.986396 c -2.560873,1.176017 -5.224042,2.089253 -7.789415,3.253605 -1.685245,0.764887 -3.249486,1.970559 -4.917742,2.716604 -1.430861,0.639884 -2.747097,0.93849 -3.97727,2.031709 -0.41063,0.364919 -0.674465,0.880703 -1.102722,1.22477 -0.396431,0.318497 -0.891175,0.490098 -1.336762,0.735147 -0.437452,0.460904 -0.818433,0.982916 -1.312357,1.382712 -0.804233,0.650971 -0.746705,0.02882 -1.217589,0.735148 -1.046448,1.569672 -2.156024,3.224673 -3.048283,4.910563 -0.269963,0.510088 -0.191791,1.310529 -0.367573,1.83787 -0.0548,0.164386 -0.312779,0.20319 -0.367575,0.367575 -0.331665,0.994995 0,2.616507 0,3.675743 0,2.76556 -0.04737,4.673025 0.943346,6.867607 0.25441,0.563554 6.245317,4.087585 7.164826,4.354893 0.235308,0.06841 0.507625,-0.09101 0.735148,0 0.568806,0.227523 0.888367,0.911241 1.470297,1.102723 0.237318,0.07809 0.509755,-0.07026 0.749507,0 1.029226,0.301622 1.938157,1.258794 2.858751,1.734491 0.348925,0.180301 0.772877,0.185598 1.117082,0.374754 0.409649,0.225123 0.687445,0.660754 1.11421,0.851453 0.503732,0.225089 1.10263,0.16012 1.613879,0.367572 1.604312,0.650989 3.137207,1.791735 4.766979,2.446665 1.86014,0.7475 3.779163,1.26787 5.515049,2.33754 0.708166,0.43638 1.04538,1.19834 1.477476,1.84649 0.302218,0.45333 0.864008,0.68294 1.193181,1.11708 1.076092,1.41925 3.082261,5.95632 3.412985,7.60994 0.07209,0.36043 -0.07209,0.74228 0,1.10272 0.03022,0.15109 0.705323,1.3244 0.742328,1.4703 0.288991,1.13936 -0.160004,2.51728 0,3.68292 0.05722,0.41684 0.303969,0.79162 0.367575,1.20754 0.247539,1.61867 0.277781,9.28703 0,10.75298 -0.204092,1.07706 -0.530466,2.12041 -0.73515,3.15023 -0.187756,0.94465 0.188881,2.00193 0,2.94633 -0.34584,1.7292 -0.685078,3.49093 -1.102723,5.17619 -0.171508,0.69207 0.175895,1.51463 0,2.20545 -0.06845,0.26883 -0.307742,0.4735 -0.376189,0.74233 -0.296979,1.16638 -0.254077,5.84191 0,6.93366 0.943387,4.05361 -0.28271,-3.34552 0.73515,2.06186 0.09066,0.48164 -0.154985,1.00535 0,1.47029 0.1397,0.4191 0.594458,0.68396 0.735147,1.10273 0.07606,0.22639 -0.106976,0.50295 0,0.71648 0.654447,1.30629 1.548204,2.47394 2.2557,3.61257 0.514345,0.82777 0.306215,0.0902 0.89022,0.3647 0.349504,0.16427 0.345842,0.73571 0.670536,0.94478 0.360503,0.23213 0.81317,0.27813 1.200359,0.46234 1.298672,0.61785 2.460342,1.56524 3.624052,2.28154 1.08799,0.6697 3.72481,1.01235 5.09866,1.4703 0.32307,0.10769 0.75613,-0.11006 1.07831,0 0.71205,0.24325 5.00854,1.30281 5.86109,1.10129 2.51779,-0.59516 -1.38917,-0.2178 2.10493,-0.73515 0.39486,-0.0585 0.80333,0.063 1.19749,0 2.98101,-0.47637 -0.38819,-0.17864 1.83787,-0.73515 0.23774,-0.0594 0.51203,0.10132 0.73515,0 0.42254,-0.19188 0.7028,-0.61841 1.11134,-0.83853 0.40312,-0.21719 0.90034,-0.22602 1.29512,-0.45803 0.29878,-0.17559 0.43339,-0.56474 0.73515,-0.73515 0.36916,-0.20847 0.85737,-0.14402 1.21759,-0.36757 0.31707,-0.19677 0.44765,-0.60638 0.73515,-0.84428 1.21716,-1.00715 2.64924,-1.89124 3.39863,-3.39001 0.72026,-1.44052 1.2927,-3.92816 1.47029,-5.52653 0.29805,-2.6824 0.0858,-5.41499 0.37332,-8.09525 0.058,-0.54024 0.31152,-1.0476 0.36758,-1.58804 0.35131,-3.3869 -0.59748,-7.06394 0,-10.40982 0.07,-0.392 0.38197,-0.71212 0.45946,-1.10272 0.52347,-2.63862 -0.75197,0.32846 0.36758,-2.68358 0.56153,-1.51076 0.89605,-1.53999 1.58373,-2.98941 0.31815,-0.67056 0.44344,-1.43407 0.83709,-2.0633 0.52391,-0.83745 2.5178,-2.74329 3.34694,-3.25791 1.38865,-0.8619 3.37617,-1.06915 4.88615,-1.58229 2.47728,-0.84186 1.98291,-1.32408 4.86031,-1.85941 1.43043,-0.26613 3.30405,0 4.79138,0 3.93386,0 7.81822,0.3237 11.52403,1.8551 4.41083,1.82275 7.83152,7.87721 8.9826,12.22328 0.78536,2.96526 1.00591,6.04903 1.59521,8.99552 0.2664,1.33199 0,3.05892 0,4.41089 0,3.97916 0.0775,6.85326 1.58229,10.37392 0.097,0.22696 0.53818,0.55361 0.67198,0.73515 0.60248,0.81751 0.70141,1.62343 1.55501,2.27436 0.9129,0.69616 2.35429,1.50471 3.36273,2.05325 0.82388,0.44816 6.78297,0.0525 7.85402,-0.36757 0.86227,-0.33817 2.10541,-1.14013 2.9004,-1.64978 1.11122,-0.71239 2.46194,-1.30764 3.24642,-2.40933 0.42874,-0.60211 1.60059,-1.59339 1.85223,-2.21837 0.13729,-0.34097 -0.11092,-0.75229 0,-1.10272 0.14746,-0.46586 0.56879,-0.80611 0.74807,-1.26067 1.46735,-3.72031 2.1038,-11.55368 1.59953,-15.60755 -0.17231,-1.38518 -1.00474,-2.33316 -1.22047,-3.6901 -0.0828,-0.52089 0.11714,-1.06803 0,-1.58229 -0.1626,-0.71388 -0.64356,-1.32648 -0.82416,-2.03602 -0.0988,-0.38821 0.12667,-0.82175 0,-1.20179 -0.19742,-0.59226 -0.67768,-1.05334 -0.94048,-1.61963 -0.29805,-0.64223 -0.58889,-2.25842 -0.74089,-2.84008 -0.30412,-1.16374 -1.32259,-3.34788 -1.95274,-4.40084 -1.04396,-1.74444 -2.36904,-3.18253 -3.51924,-4.81724 -0.87944,-1.2499 -1.57248,-2.7584 -2.42369,-4.05049 -2.07168,-3.14471 -4.31435,-6.36169 -5.6974,-9.88717 -0.53147,-1.35475 -0.77598,-3.200893 -1.47748,-4.508533 -0.21612,-0.40287 -0.66609,-0.67066 -0.81555,-1.102722 -0.13675,-0.395322 0.0559,-0.840367 0,-1.254922 0.058,-0.935863 -0.60998,-1.694706 -0.73515,-2.580198 -0.32363,-2.289418 0.0519,-4.7889 0.37188,-7.022679 0.46785,-3.265908 1.69726,-6.551792 3.78056,-9.233866 2.97755,-3.833341 -0.45041,0.858253 1.94412,-2.056119 0.71929,-0.875443 0.72431,-1.302702 1.5866,-1.951302 2.28148,-1.71608 -1.49507,1.802461 2.0231,-1.102722 0.47225,-0.38997 0.78591,-0.945243 1.242,-1.353995 1.95443,-1.751587 4.37045,-3.088317 6.46988,-4.609036 0.47205,-0.341929 0.76783,-0.899801 1.25923,-1.213284 3.44229,-2.195971 0.20153,0.719926 3.50631,-1.573676 0.47965,-0.332893 0.80057,-0.855575 1.25636,-1.220462 1.45156,-1.162068 3.19149,-1.844402 4.67939,-2.923363 0.9713,-0.704344 1.4296,-1.797179 2.20545,-2.57302 0.72375,-0.723754 0.64664,0.0024 1.10272,-0.73515 0.56909,-0.920321 1.47059,-1.591646 2.02166,-2.491176 0.65645,-1.07156 2.16416,-4.521671 1.47029,-5.87688 -0.61262,-1.19653 -2.82441,-2.324846 -3.85091,-2.970747 -3.37128,-2.121313 -7.36668,-4.747165 -11.38332,-5.427464 -0.36477,-0.06178 -0.75537,0.105757 -1.1099,0 -0.5979,-0.178353 -1.11803,-0.554233 -1.67705,-0.83135 -0.65092,0 -1.3178,0.14328 -1.95274,0 -0.63486,-0.143258 -1.1317,-0.681191 -1.76321,-0.838528 -1.82532,-0.454774 -4.49867,0 -6.38086,0 -2.4945,0 -5.2656,-0.32852 -7.7449,0 -1.74839,0.231669 -1.0395,0.511998 -2.79127,1.20323 -5.69498,2.247178 4.34502,-2.59838 -4.19839,1.296561 -0.74243,0.338474 -1.38137,0.874705 -2.11355,1.234821 -3.06006,1.505064 -1.48119,0.244396 -4.75406,2.027402 -0.74102,0.403696 -1.3816,0.972595 -2.10924,1.399939 -3.27031,1.920658 -6.69725,3.554474 -9.89866,5.6012 -3.80727,2.434064 -7.24131,5.276792 -10.63955,8.204372 -2.04422,1.761091 -0.80156,0.479285 -2.57302,1.837873 -0.86171,0.660868 -1.47508,1.623981 -2.37918,2.225548 -0.32258,0.214632 -0.80227,0.122938 -1.10273,0.367572 -0.23624,0.192352 -0.15906,0.617643 -0.37331,0.834223 -1.14544,1.157881 -3.62839,1.332286 -5.02687,1.951303 -1.33466,0.590769 -2.68512,1.766374 -4.10218,2.225545 -1.95775,0.63437 -4.20743,0.712835 -6.19277,1.109903 -0.26865,0.05373 -0.4901,0.245049 -0.73515,0.367575 -0.49345,0.122523 -0.97581,0.304721 -1.48035,0.367573 -1.7198,0.214243 -3.47744,0.556506 -5.20778,0.752379 -1.78738,0.20233 -3.76658,0 -5.55956,0 -6.56757,0 -3.68212,0.451856 -9.77374,-1.928328 -1.052986,-0.411435 -2.182929,-0.626303 -3.204787,-1.109903 -0.305107,-0.144394 -0.695261,-1.066231 -0.743765,-1.089801 -0.214376,-0.104174 -0.550518,0.172456 -0.715047,0 -0.172455,-0.180765 0.138092,-0.541303 0,-0.749506 -0.152376,-0.229748 -0.545951,-0.172633 -0.740891,-0.367575 -0.08799,-0.08799 0.05468,-0.261535 0,-0.373316 -0.210053,-0.429385 -0.825876,-0.69377 -1.092671,-1.092674 -0.282051,-0.421709 -0.507953,-1.120087 -0.742328,-1.468861 -0.166045,-0.247089 -0.641152,0.158591 -0.893091,0 -0.667112,-0.419933 -1.221361,-0.997265 -1.846487,-1.477475 -0.315886,-0.24266 -0.44922,-0.896724 -0.844272,-0.845709 -0.71342,0.09213 -1.201317,0.791625 -1.801974,1.187439 z"
       id="path2" />
  </g>
</svg>
